<svg width="56" height="56" viewBox="0 0 56 56" fill="none" xmlns="http://www.w3.org/2000/svg">
<circle cx="28" cy="28" r="27.5" fill="white" stroke="#EDEBEE"/>
<g clip-path="url(#clip0_70_3222)">
<path d="M27.76 40C30.928 40 33.592 38.92 35.536 37.096C37.768 34.984 39.04 31.912 39.04 28.264C39.04 27.28 38.968 26.56 38.8 25.816H27.76V30.256H34.24C34.096 31.36 33.4 33.04 31.84 34.144C30.832 34.864 29.512 35.344 27.76 35.344C24.64 35.344 22 33.256 21.064 30.376C20.824 29.632 20.68 28.84 20.68 28C20.68 27.16 20.824 26.368 21.064 25.624C22 22.72 24.64 20.632 27.76 20.632C29.968 20.632 31.456 21.616 32.296 22.432L35.608 19.12C33.592 17.176 30.928 16 27.76 16C23.152 16 19.192 18.688 17.248 22.6C16.456 24.232 16 26.08 16 28C16 29.92 16.456 31.744 17.248 33.376C19.168 37.312 23.152 40 27.76 40Z" fill="#0C0B0D"/>
</g>
<defs>
<clipPath id="clip0_70_3222">
<rect width="24" height="24" fill="white" transform="translate(16 16)"/>
</clipPath>
</defs>
</svg>
