<svg width="1746" height="3257" viewBox="0 0 1746 3257" fill="none" xmlns="http://www.w3.org/2000/svg">
<g clip-path="url(#clip0_359_6813)">
<g opacity="0.5">
<path d="M1567.38 196.072C1573.63 100.305 1501.22 17.595 1405.66 11.3349C1310.09 5.07477 1227.56 77.6347 1221.31 173.402C1215.06 269.169 1287.47 351.879 1383.04 358.139C1478.6 364.399 1561.14 291.839 1567.38 196.072Z" fill="#E41B1F" fill-opacity="0.3"/>
<path d="M830.848 471.191C834.358 417.371 793.666 370.888 739.959 367.37C686.252 363.852 639.867 404.63 636.357 458.451C632.846 512.272 673.538 558.754 727.245 562.272C780.953 565.79 827.337 525.012 830.848 471.191Z" fill="#572F88" fill-opacity="0.3"/>
<path d="M1024.85 2632.19C1028.36 2578.37 987.666 2531.89 933.959 2528.37C880.252 2524.85 833.867 2565.63 830.357 2619.45C826.846 2673.27 867.538 2719.75 921.245 2723.27C974.953 2726.79 1021.34 2686.01 1024.85 2632.19Z" fill="#E41B1F" fill-opacity="0.3"/>
<path d="M563.287 1084.88C568.763 1000.93 505.291 928.424 421.517 922.936C337.743 917.449 265.392 981.056 259.915 1065.01C254.439 1148.96 317.912 1221.46 401.686 1226.95C485.46 1232.44 557.811 1168.83 563.287 1084.88Z" fill="#244F8E" fill-opacity="0.3"/>
<path d="M1845.53 2808.58C1852.65 2699.38 1770.08 2605.06 1661.11 2597.93C1552.14 2590.79 1458.02 2673.53 1450.9 2782.73C1443.77 2891.93 1526.34 2986.25 1635.31 2993.39C1744.29 3000.53 1838.4 2917.79 1845.53 2808.58Z" fill="#244F8E" fill-opacity="0.3"/>
<path d="M1497.13 573.007C1499.27 540.279 1474.52 512.013 1441.87 509.874C1409.21 507.734 1381 532.531 1378.87 565.259C1376.73 597.988 1401.48 626.253 1434.13 628.393C1466.79 630.532 1495 605.735 1497.13 573.007Z" fill="#F0A205" fill-opacity="0.3"/>
<path d="M791.135 2169.01C793.27 2136.28 768.525 2108.01 735.866 2105.87C703.207 2103.73 675 2128.53 672.866 2161.26C670.731 2193.99 695.475 2222.25 728.135 2224.39C760.794 2226.53 789 2201.74 791.135 2169.01Z" fill="#572F88" fill-opacity="0.3"/>
<path d="M1248.67 1467.52C1252.51 1408.65 1208 1357.81 1149.26 1353.97C1090.52 1350.12 1039.79 1394.72 1035.95 1453.58C1032.11 1512.45 1076.62 1563.29 1135.36 1567.13C1194.1 1570.98 1244.83 1526.38 1248.67 1467.52Z" fill="#F0A205" fill-opacity="0.3"/>
<path d="M358.669 2850.52C362.509 2791.65 318.003 2740.81 259.263 2736.97C200.523 2733.12 149.792 2777.72 145.952 2836.58C142.113 2895.45 186.618 2946.29 245.358 2950.13C304.098 2953.98 354.829 2909.38 358.669 2850.52Z" fill="#F0A205" fill-opacity="0.3"/>
<path d="M188.135 1421.01C190.27 1388.28 165.525 1360.01 132.866 1357.87C100.207 1355.73 72.0004 1380.53 69.8655 1413.26C67.7307 1445.99 92.4755 1474.25 125.135 1476.39C157.794 1478.53 186 1453.74 188.135 1421.01Z" fill="#F0A205" fill-opacity="0.3"/>
<path d="M262.472 686.832C263.925 664.563 247.088 645.33 224.866 643.874C202.643 642.418 183.451 659.291 181.998 681.56C180.546 703.83 197.383 723.062 219.605 724.518C241.827 725.974 261.02 709.101 262.472 686.832Z" fill="#8F346C" fill-opacity="0.3"/>
<path d="M953.481 3179.08C958.454 3102.84 900.817 3037.01 824.746 3032.02C748.675 3027.04 682.976 3084.8 678.004 3161.03C673.031 3237.26 730.668 3303.1 806.739 3308.08C882.81 3313.07 948.509 3255.31 953.481 3179.08Z" fill="#8F346C" fill-opacity="0.3"/>
<path d="M1592.08 1702.51C1595.06 1656.82 1560.51 1617.35 1514.91 1614.37C1469.31 1611.38 1429.93 1646 1426.95 1691.69C1423.97 1737.39 1458.52 1776.85 1504.12 1779.84C1549.71 1782.82 1589.09 1748.2 1592.08 1702.51Z" fill="#8F346C" fill-opacity="0.3"/>
<path d="M1651.46 1109.65L1655.4 1103.04C1688.51 1047.32 1689.48 978.04 1655.81 923.416C1651.47 916.389 1646.61 909.691 1641.28 903.377C1602.91 857.87 1540.2 833.877 1480.51 841.871C1445.39 846.57 1410.04 861.485 1375.76 853.189C1331.16 842.392 1305.88 797.213 1285.75 756.37C1265.62 715.527 1240.2 670.371 1195.56 659.778C1167.56 653.078 1137.7 662.229 1112.93 677.176C1047.4 716.666 1011.98 795.74 1013.81 871.457C1015.63 947.175 1050.35 1018.89 1098.38 1077.23C1165.61 1158.95 1262.73 1219.01 1369 1229.6C1475.27 1240.19 1589.11 1196.54 1651.46 1109.65Z" fill="url(#paint0_linear_359_6813)" fill-opacity="0.3"/>
<path d="M367.414 1878.96L360.705 1875.2C304.086 1843.63 234.808 1844.57 181.134 1879.74C174.23 1884.28 167.669 1889.32 161.504 1894.82C117.074 1934.43 94.8206 1997.78 104.459 2057.23C110.126 2092.2 126.01 2127.13 118.664 2161.62C109.102 2206.5 64.6375 2233.02 24.3658 2254.27C-15.906 2275.52 -60.3431 2302.18 -69.6994 2347.09C-75.6244 2375.27 -65.6523 2404.87 -50.0278 2429.21C-8.74437 2493.63 71.277 2526.85 146.915 2522.94C222.553 2519.02 293.287 2482.34 350.272 2432.71C430.109 2363.26 487.463 2264.52 495.116 2157.99C502.769 2051.47 455.997 1938.88 367.414 1878.96Z" fill="url(#paint1_linear_359_6813)" fill-opacity="0.3"/>
<path d="M90.8139 485.331L94.5211 489.247C125.837 522.195 172.468 536.04 215.83 523.729C221.41 522.136 226.866 520.136 232.154 517.744C270.254 500.526 298.476 462.799 304.506 421.014C308.054 396.434 304.746 369.749 316.916 348.209C332.752 320.185 368.125 311.734 399.58 305.934C431.035 300.134 466.418 291.587 482.124 263.496C492.014 245.885 491.549 223.998 486.191 204.447C472.054 152.728 425.401 113.782 373.883 100.596C322.366 87.4108 267.251 97.1721 218.633 118.462C150.534 148.244 91.3506 202.315 63.8431 271.978C36.3356 341.641 44.0325 426.732 90.8139 485.331Z" fill="#EA5B0C" fill-opacity="0.3"/>
<path d="M1053.83 2207.21L1053.36 2212.58C1049.55 2257.88 1070.18 2301.93 1108.2 2326.15C1113.09 2329.26 1118.21 2332.01 1123.51 2334.38C1161.7 2351.41 1208.64 2347.44 1243.88 2324.18C1264.61 2310.5 1282.35 2290.3 1306.53 2285.08C1338 2278.29 1367.82 2299.11 1393.05 2318.77C1418.29 2338.42 1448.18 2359.19 1479.61 2352.26C1499.35 2347.95 1515.4 2333.06 1526.45 2316.07C1555.71 2271.14 1553.81 2210.39 1529.44 2163.13C1505.06 2115.87 1461.15 2081.17 1412.93 2058.98C1345.43 2027.87 1265.7 2019.57 1195.36 2045.29C1125.02 2071.02 1066.54 2133.31 1053.83 2207.21Z" fill="#EA5B0C" fill-opacity="0.3"/>
<path d="M845.384 1648.07C851.63 1552.31 779.224 1469.6 683.658 1463.34C588.093 1457.08 505.558 1529.64 499.311 1625.4C493.064 1721.17 565.471 1803.88 661.036 1810.14C756.602 1816.4 839.137 1743.84 845.384 1648.07Z" fill="#E41B1F" fill-opacity="0.3"/>
</g>
</g>
<defs>
<linearGradient id="paint0_linear_359_6813" x1="1406.42" y1="738.344" x2="1091.48" y2="1174.11" gradientUnits="userSpaceOnUse">
<stop offset="0.458333" stop-color="#007136"/>
</linearGradient>
<linearGradient id="paint1_linear_359_6813" x1="3.01614" y1="2134.15" x2="447.307" y2="2436.94" gradientUnits="userSpaceOnUse">
<stop offset="0.458333" stop-color="#007136"/>
</linearGradient>
<clipPath id="clip0_359_6813">
<rect width="1746" height="3257" fill="white"/>
</clipPath>
</defs>
</svg>
