<svg width="56" height="56" viewBox="0 0 56 56" fill="none" xmlns="http://www.w3.org/2000/svg">
<circle cx="28" cy="28" r="27.5" fill="white" stroke="#EDEBEE"/>
<g clip-path="url(#clip0_70_3184)">
<path d="M36.3636 24.0225C36.2211 24.135 33.7052 25.5775 33.7052 28.785C33.7052 32.495 36.9066 33.8075 37.0025 33.84C36.9877 33.92 36.4939 35.6375 35.3145 37.3875C34.2629 38.9275 33.1646 40.465 31.4939 40.465C29.8231 40.465 29.3931 39.4775 27.4644 39.4775C25.5848 39.4775 24.9165 40.4975 23.3882 40.4975C21.86 40.4975 20.7936 39.0725 19.5676 37.3225C18.1474 35.2675 17 32.075 17 29.045C17 24.185 20.1057 21.6075 23.1622 21.6075C24.7862 21.6075 26.14 22.6925 27.1597 22.6925C28.1302 22.6925 29.6437 21.5425 31.4914 21.5425C32.1916 21.5425 34.7076 21.6075 36.3636 24.0225ZM30.6143 19.485C31.3784 18.5625 31.9189 17.2825 31.9189 16.0025C31.9189 15.825 31.9042 15.645 31.8722 15.5C30.629 15.5475 29.1499 16.3425 28.258 17.395C27.5577 18.205 26.9042 19.485 26.9042 20.7825C26.9042 20.9775 26.9361 21.1725 26.9509 21.235C27.0295 21.25 27.1572 21.2675 27.285 21.2675C28.4005 21.2675 29.8034 20.5075 30.6143 19.485Z" fill="#0C0B0D"/>
</g>
<defs>
<clipPath id="clip0_70_3184">
<rect width="20" height="25" fill="white" transform="translate(17 15.5)"/>
</clipPath>
</defs>
</svg>
