<svg width="70" height="70" viewBox="0 0 70 70" fill="none" xmlns="http://www.w3.org/2000/svg">
<g clip-path="url(#clip0_983_28980)">
<path d="M16.513 55.9407L12.376 52.9657C11.6597 52.2474 10.7179 51.7975 9.709 51.6917C9.56973 51.6956 9.43129 51.7144 9.296 51.7477L5.922 37.3907C5.922 37.2507 5.292 33.8907 2.842 33.8907C0.161 33.8697 0 38.3707 0 38.6087L1.099 54.0087C1.099 60.7847 8.736 66.3427 10.199 67.3087V69.4997H21.336V65.3767C21.3355 63.5345 20.8981 61.7188 20.0597 60.0785C19.2213 58.4382 18.0058 57.0201 16.513 55.9407V55.9407ZM20.356 68.5407H11.158V66.7907L10.934 66.6437C10.843 66.5877 2.1 60.7917 2.1 53.9527L0.98 38.5877C0.98 38.5527 1.134 34.8427 2.842 34.8427C4.55 34.8427 4.942 37.5307 4.942 37.5867L8.4 52.2097C8.323 52.2797 8.246 52.3497 8.176 52.4267C7.91834 52.6993 7.72244 53.0243 7.60165 53.3794C7.48085 53.7345 7.438 54.1115 7.476 54.4847C7.65496 55.4079 8.17472 56.2301 8.932 56.7877L14.805 61.7367C14.8501 61.7959 14.9081 61.844 14.9746 61.8774C15.0411 61.9108 15.1143 61.9287 15.1887 61.9296C15.2631 61.9305 15.3367 61.9144 15.404 61.8826C15.4712 61.8509 15.5304 61.8042 15.5769 61.7461C15.6235 61.6881 15.6562 61.6202 15.6726 61.5476C15.689 61.4751 15.6887 61.3997 15.6716 61.3273C15.6546 61.2549 15.6212 61.1873 15.5742 61.1297C15.5271 61.072 15.4676 61.0259 15.4 60.9947L9.492 56.0247C8.94217 55.6223 8.55475 55.0362 8.4 54.3727C8.38208 54.1335 8.41735 53.8934 8.50329 53.6695C8.58922 53.4456 8.72368 53.2435 8.897 53.0777C8.98102 52.9786 9.08026 52.8936 9.191 52.8257V52.8257C9.35628 52.7366 9.54233 52.6931 9.73 52.6997C10.4862 52.7991 11.1855 53.1549 11.711 53.7077L15.946 56.7597C17.3119 57.7497 18.4236 59.0494 19.1902 60.5521C19.9568 62.0548 20.3563 63.7178 20.356 65.4047V68.5407Z" fill="#572F88"/>
<path d="M67.1511 33.8701C64.7011 33.8701 64.0991 37.2511 64.0851 37.3701L60.7041 51.7481C60.5688 51.7148 60.4303 51.6961 60.2911 51.6921H60.2351C59.2442 51.8042 58.3222 52.2541 57.6241 52.9661L53.4801 55.9411C51.9894 57.0221 50.7758 58.4406 49.9388 60.0807C49.1017 61.7208 48.6649 63.5358 48.6641 65.3771V69.5001H59.8221V67.3231C61.3201 66.3991 68.9221 61.3801 68.9221 54.6461L70.0211 38.5461C70.0001 38.3711 69.8321 33.8701 67.1511 33.8701ZM67.9001 54.6181C67.9001 61.4011 59.1571 66.5811 59.0661 66.6301L58.8211 66.7701V68.5271H49.6441V65.3771C49.6438 63.6902 50.0433 62.0272 50.8099 60.5245C51.5764 59.0218 52.6882 57.7221 54.0541 56.7321L58.2541 53.7291L58.3171 53.6801C58.8328 53.1535 59.5062 52.8095 60.2351 52.7001V52.7001C60.4178 52.7016 60.5968 52.7524 60.7531 52.8471V52.8471C60.8638 52.915 60.963 53.0001 61.0471 53.0991C61.2266 53.2583 61.3691 53.4548 61.4646 53.6749C61.5601 53.895 61.6064 54.1333 61.6001 54.3731C61.4428 55.0467 61.0475 55.6408 60.4871 56.0461L54.6001 60.9951C54.5465 61.0354 54.5017 61.0862 54.4685 61.1445C54.4354 61.2027 54.4145 61.2672 54.4073 61.3338C54.4 61.4004 54.4065 61.4679 54.4263 61.5319C54.4462 61.5959 54.4789 61.6552 54.5226 61.7061C54.5662 61.7569 54.6199 61.7983 54.6802 61.8276C54.7405 61.8569 54.8061 61.8735 54.8731 61.8764C54.9401 61.8793 55.0069 61.8685 55.0695 61.8445C55.1321 61.8206 55.1892 61.784 55.2371 61.7371L61.0821 56.8371C61.8506 56.2729 62.3801 55.4413 62.5661 54.5061C62.5995 54.1298 62.5505 53.7506 62.4223 53.3952C62.2942 53.0397 62.09 52.7165 61.8241 52.4481L61.6001 52.2101L65.0441 37.5521C65.0441 37.5521 65.5481 34.8431 67.1441 34.8431C68.7401 34.8431 69.0131 38.5391 69.0131 38.5391L67.9001 54.6181Z" fill="#572F88"/>
<path d="M27.9548 45.999V44.9082C27.9548 43.8036 28.8503 42.9082 29.9548 42.9082H39.7726C40.8772 42.9082 41.7726 43.8036 41.7726 44.9082V45.999C41.7726 47.1035 40.8772 47.999 39.7726 47.999H29.9548C28.8503 47.999 27.9548 47.1035 27.9548 45.999Z" stroke="#572F88"/>
<path d="M28.1893 38.6768V38.7266C28.1893 39.8311 29.0847 40.7266 30.1893 40.7266H39.4777C40.5823 40.7266 41.4777 39.8213 41.4777 38.7167C41.4777 37.5902 41.8587 36.4927 42.5082 35.5722C44.2506 33.1028 47.5913 27.8538 47.5913 23.9085C47.5913 16.8239 42.22 10.9269 34.9268 10.9092C27.6171 10.8915 22.1374 16.3824 22.1375 23.6004C22.1375 27.7175 25.4745 33.0915 27.1926 35.5856C27.8208 36.4974 28.1893 37.5695 28.1893 38.6768Z" stroke="#572F88"/>
<path d="M35.2271 7.27253V0" stroke="#572F88" stroke-linecap="round"/>
<path d="M10.5007 24.7256L17.7732 24.7256" stroke="#572F88" stroke-linecap="round"/>
<path d="M51.2272 24.7256L58.4998 24.7256" stroke="#572F88" stroke-linecap="round"/>
<path d="M47.5914 13.1425L52.7339 8" stroke="#572F88" stroke-linecap="round"/>
<path d="M22.1891 13.1425L17.0466 8" stroke="#572F88" stroke-linecap="round"/>
<path d="M47.5914 34.1818L52.7339 39.3242" stroke="#572F88" stroke-linecap="round"/>
<path d="M22.1891 34.1818L17.0466 39.3242" stroke="#572F88" stroke-linecap="round"/>
<path d="M24.6814 22.909C24.6814 22.909 25.045 20 26.4995 17.8182C27.954 15.6364 30.1358 14.9092 30.1358 14.9092" stroke="#572F88" stroke-linecap="round"/>
</g>
<defs>
<clipPath id="clip0_983_28980">
<rect width="70" height="70" fill="white"/>
</clipPath>
</defs>
</svg>
