<svg width="70" height="70" viewBox="0 0 70 70" fill="none" xmlns="http://www.w3.org/2000/svg">
<g clip-path="url(#clip0_983_29019)">
<path d="M34.7664 1.62305L36.363 4.94475L39.9263 5.48208L37.3464 8.06129L37.9597 11.7152L34.7664 9.98592L31.5828 11.7152L32.1864 8.06129L29.6064 5.48208L33.1795 4.94475L34.7664 1.62305Z" stroke="#572F88" stroke-miterlimit="10"/>
<path d="M15.444 6.51758L18.4232 8.59853L21.782 7.26985L20.7695 10.8163L23.0476 13.6983L19.4454 13.8058L17.4885 16.9126L16.2716 13.4248L12.7959 12.4771L15.6387 10.2105L15.444 6.51758Z" stroke="#572F88" stroke-miterlimit="10"/>
<path d="M0.924805 20.9678L4.50756 21.3195L6.82467 18.4766L7.61326 22.0914L10.9526 23.4689L7.85665 25.3544L7.60353 29.0572L4.90672 26.605L1.41159 27.5038L2.84275 24.1039L0.924805 20.9678Z" stroke="#572F88" stroke-miterlimit="10"/>
<path d="M54.5567 6.51758L51.5776 8.59853L48.2188 7.26985L49.2313 10.8163L46.9531 13.6983L50.5554 13.8058L52.5122 16.9126L53.7292 13.4248L57.2049 12.4771L54.3523 10.2105L54.5567 6.51758Z" stroke="#572F88" stroke-miterlimit="10"/>
<path d="M69.0757 20.9678L65.4929 21.3195L63.1758 18.4766L62.3872 22.0914L59.0479 23.4689L62.1438 25.3544L62.3872 29.0572L65.0937 26.605L68.5889 27.5038L67.1577 24.1039L69.0757 20.9678Z" stroke="#572F88" stroke-miterlimit="10"/>
<path d="M55.6663 67.25V62.0833C55.6663 59.3428 54.5777 56.7144 52.6398 54.7766C50.7019 52.8387 48.0736 51.75 45.333 51.75H24.6663C21.9258 51.75 19.2974 52.8387 17.3596 54.7766C15.4217 56.7144 14.333 59.3428 14.333 62.0833V67.25" stroke="#572F88" stroke-linecap="round" stroke-linejoin="round"/>
<path d="M35.0003 41.4167C40.7073 41.4167 45.3337 36.7903 45.3337 31.0833C45.3337 25.3764 40.7073 20.75 35.0003 20.75C29.2934 20.75 24.667 25.3764 24.667 31.0833C24.667 36.7903 29.2934 41.4167 35.0003 41.4167Z" stroke="#572F88" stroke-linecap="round" stroke-linejoin="round"/>
</g>
<defs>
<clipPath id="clip0_983_29019">
<rect width="70" height="70" fill="white"/>
</clipPath>
</defs>
</svg>
