<svg width="16" height="16" viewBox="0 0 16 16" fill="none" xmlns="http://www.w3.org/2000/svg">
<g clip-path="url(#clip0_66_2841)">
<path d="M6.59959 2.82701C7.05848 2.7196 7.5283 2.6659 7.99959 2.66701C12.6663 2.66701 15.3329 8.00034 15.3329 8.00034C14.9282 8.75741 14.4456 9.47017 13.8929 10.127M9.41293 9.41368C9.22983 9.61017 9.00903 9.76778 8.7637 9.87709C8.51836 9.9864 8.25353 10.0452 7.98499 10.0499C7.71645 10.0547 7.4497 10.0053 7.20067 9.90467C6.95163 9.80408 6.72541 9.65436 6.53549 9.46445C6.34557 9.27453 6.19586 9.0483 6.09527 8.79927C5.99468 8.55023 5.94528 8.28349 5.95002 8.01495C5.95475 7.74641 6.01353 7.48157 6.12284 7.23624C6.23216 6.99091 6.38976 6.77011 6.58626 6.58701M11.9596 11.9603C10.82 12.829 9.43233 13.3103 7.99959 13.3337C3.33293 13.3337 0.66626 8.00034 0.66626 8.00034C1.49552 6.45494 2.64568 5.10475 4.03959 4.04034L11.9596 11.9603Z" stroke="#7E7984" stroke-width="1.33" stroke-linecap="round" stroke-linejoin="round"/>
<path d="M0.666748 0.666992L15.3334 15.3337" stroke="#7E7984" stroke-width="1.33" stroke-linecap="round" stroke-linejoin="round"/>
</g>
<defs>
<clipPath id="clip0_66_2841">
<rect width="16" height="16" fill="white"/>
</clipPath>
</defs>
</svg>
