<svg width="56" height="56" viewBox="0 0 56 56" fill="none" xmlns="http://www.w3.org/2000/svg">
<circle cx="28" cy="28" r="27.5" fill="white" stroke="#EDEBEE"/>
<path d="M33 18H23C20.2386 18 18 20.2386 18 23V33C18 35.7614 20.2386 38 23 38H33C35.7614 38 38 35.7614 38 33V23C38 20.2386 35.7614 18 33 18Z" stroke="#0C0B0D" stroke-width="1.99832" stroke-linecap="round" stroke-linejoin="round"/>
<path d="M32 27.3703C32.1234 28.2025 31.9812 29.0525 31.5937 29.7993C31.2062 30.5461 30.5931 31.1517 29.8416 31.53C29.0901 31.9082 28.2384 32.0399 27.4077 31.9062C26.5771 31.7726 25.8097 31.3804 25.2148 30.7855C24.6199 30.1905 24.2277 29.4232 24.094 28.5925C23.9604 27.7619 24.092 26.9102 24.4703 26.1587C24.8485 25.4072 25.4541 24.794 26.2009 24.4065C26.9477 24.019 27.7977 23.8769 28.63 24.0003C29.4789 24.1262 30.2648 24.5218 30.8716 25.1286C31.4785 25.7355 31.8741 26.5214 32 27.3703Z" stroke="#0C0B0D" stroke-width="1.99832" stroke-linecap="round" stroke-linejoin="round"/>
<path d="M33.5 22.5H33.51" stroke="#0C0B0D" stroke-width="1.99832" stroke-linecap="round" stroke-linejoin="round"/>
</svg>
