<svg width="391" height="404" viewBox="0 0 391 404" fill="none" xmlns="http://www.w3.org/2000/svg">
<path opacity="0.7" d="M35.2755 125.831C35.2755 125.831 9.84919 191.495 45.581 257.614C81.3128 323.734 154.911 358.663 213.816 388.531C272.722 418.398 333.889 403.852 362.954 354.933C392.019 306.014 352.156 271.093 352.101 201.335C352.047 131.577 362.544 113.109 324.742 54.1763C286.939 -4.75663 194.272 -17.8072 124.195 25.9045C54.1172 69.6163 35.2755 125.831 35.2755 125.831Z" fill="white"/>
<path opacity="0.5" d="M363.711 56.7117C312.037 -0.442813 215.22 8.37614 170.223 20.3688C139.27 28.6497 121.422 55.9365 99.7805 59.2561C34.5731 69.288 -8.31786 102.548 1.85996 159.274C12.0378 216 65.9638 233.839 92.4116 316C118.859 398.161 184.194 411.668 253.533 383.843C322.872 356.018 335.384 334.422 351.8 257.076C368.216 179.73 422.935 122.174 363.711 56.7117Z" fill="#DEE4EE"/>
<path d="M37.7926 239.794L29.9951 223.178H58.7411L37.7926 239.794Z" stroke="#263238" stroke-linecap="round" stroke-linejoin="round"/>
<path d="M161.951 124.746L165.554 134.431L149.42 133.091L161.951 124.746Z" stroke="#263238" stroke-linecap="round" stroke-linejoin="round"/>
<path d="M166.128 25.3115L174.764 29.4884L166.128 33.711L174.764 39.0552L166.128 44.8373L175.813 49.3151L168.18 56.4287" stroke="#263238" stroke-linecap="round" stroke-linejoin="round"/>
<path d="M337.345 281.39L334.436 299.128H353.004L354.454 293.665L342.088 293.556L344.45 280.633L337.345 281.39Z" stroke="#263238" stroke-linecap="round" stroke-linejoin="round"/>
<path d="M303.708 338.182C306.764 335.127 306.764 330.172 303.708 327.116C300.652 324.061 295.698 324.061 292.642 327.116C289.586 330.172 289.586 335.127 292.642 338.182C295.698 341.238 300.652 341.238 303.708 338.182Z" stroke="#263238" stroke-linecap="round" stroke-linejoin="round"/>
<path d="M112.521 83.1322C116.843 83.1322 120.346 79.6289 120.346 75.3073C120.346 70.9857 116.843 67.4824 112.521 67.4824C108.2 67.4824 104.696 70.9857 104.696 75.3073C104.696 79.6289 108.2 83.1322 112.521 83.1322Z" stroke="#263238" stroke-linecap="round" stroke-linejoin="round"/>
<path d="M352.493 208.011L369.73 217.869" stroke="#263238" stroke-linecap="round" stroke-linejoin="round"/>
<path d="M364.431 207.572L357.792 220.641" stroke="#263238" stroke-linecap="round" stroke-linejoin="round"/>
<path d="M269.557 148.312L250.889 155.088" stroke="#263238" stroke-linecap="round" stroke-linejoin="round"/>
<path d="M262.17 157.696L256.488 144.181" stroke="#263238" stroke-linecap="round" stroke-linejoin="round"/>
<path d="M92.5941 217.678C92.4665 218.024 106.165 211.759 106.165 211.759L112.859 227.089L99.279 233.008L92.5941 217.678Z" stroke="#263238" stroke-linecap="round" stroke-linejoin="round"/>
<path d="M280.537 197.14C280.391 197.14 284.185 201.7 284.185 201.7L279.069 205.785L275.421 201.225L280.537 197.14Z" stroke="#263238" stroke-linecap="round" stroke-linejoin="round"/>
<path d="M29.9951 154.595C29.9951 155.286 29.7903 155.962 29.4065 156.536C29.0227 157.11 28.4771 157.558 27.8389 157.823C27.2006 158.087 26.4983 158.156 25.8208 158.021C25.1432 157.887 24.5208 157.554 24.0323 157.065C23.5438 156.577 23.2112 155.954 23.0764 155.277C22.9416 154.599 23.0108 153.897 23.2752 153.259C23.5395 152.621 23.9872 152.075 24.5616 151.691C25.136 151.307 25.8114 151.103 26.5022 151.103C26.9612 151.101 27.416 151.191 27.8403 151.366C28.2646 151.541 28.6502 151.798 28.9748 152.123C29.2993 152.448 29.5566 152.833 29.7317 153.257C29.9068 153.682 29.9963 154.136 29.9951 154.595V154.595Z" stroke="#263238" stroke-linecap="round" stroke-linejoin="round"/>
<path d="M241.45 28.7953C241.452 29.4866 241.248 30.1628 240.865 30.7384C240.483 31.314 239.938 31.7631 239.3 32.0289C238.662 32.2946 237.959 32.3651 237.281 32.2314C236.603 32.0976 235.98 31.7657 235.49 31.2776C235.001 30.7894 234.667 30.1671 234.532 29.4892C234.396 28.8114 234.465 28.1087 234.729 27.4699C234.993 26.8311 235.441 26.285 236.015 25.9008C236.59 25.5166 237.266 25.3115 237.957 25.3115C238.882 25.3115 239.769 25.6783 240.423 26.3314C241.078 26.9844 241.447 27.8705 241.45 28.7953V28.7953Z" stroke="#263238" stroke-linecap="round" stroke-linejoin="round"/>
<path d="M285.453 239.237L289.165 245.439L281.577 246.032L283.593 251.832L275.184 252.47L279.27 263.606" stroke="#263238" stroke-linecap="round" stroke-linejoin="round"/>
<path d="M88.6998 289.771L95.2479 293.711L86.4837 300.861L91.9739 304.327L84.915 312.152" stroke="#263238" stroke-linecap="round" stroke-linejoin="round"/>
<path d="M277.929 90.1821L272.53 84.7648L282.772 79.9587L278.294 75.2619L287.04 69.3887" stroke="#263238" stroke-linecap="round" stroke-linejoin="round"/>
<path d="M66.9492 93.2002C66.9492 93.2002 106.001 150.656 161.048 160.277" stroke="#263238" stroke-linecap="round" stroke-linejoin="round"/>
<path d="M57.0449 105.394C57.0449 105.394 112.977 163.88 157.492 167.181" stroke="#263238" stroke-linecap="round" stroke-linejoin="round"/>
<path d="M52.5396 123.824C52.5396 123.824 109.53 172.26 152.913 174.996" stroke="#263238" stroke-linecap="round" stroke-linejoin="round"/>
<path d="M52.5396 143.906C52.5396 143.906 99.653 180.085 149.475 180.687" stroke="#263238" stroke-linecap="round" stroke-linejoin="round"/>
<path d="M100.784 119.238C99.3793 117.764 98.4595 115.896 98.1482 113.884C97.9643 112.876 97.9336 111.846 98.057 110.829V110.829L85.5901 133.364C84.9487 131.346 83.7276 129.56 82.0789 128.23C78.5586 125.266 74.1263 124.728 72.1838 127.044C70.2413 129.361 71.518 133.629 75.0383 136.593C78.5586 139.557 82.9909 140.086 84.9426 137.778C85.2378 137.419 85.4636 137.008 85.6083 136.565L95.4213 118.809C96.3863 120.421 97.6788 121.813 99.2152 122.895C100.253 123.631 101.061 124.646 101.545 125.823C102.03 127 102.17 128.29 101.951 129.543C102.052 129.242 104.797 123.442 100.784 119.238Z" fill="#263238"/>
<path d="M107.451 158.772C106.26 157.515 105.483 155.924 105.226 154.212C105.068 153.361 105.041 152.49 105.143 151.631L94.619 170.719C94.0785 169.012 93.0477 167.503 91.6551 166.378C88.682 163.87 84.9337 163.423 83.2921 165.375C81.6505 167.326 82.7267 170.938 85.7089 173.446C88.6911 175.954 92.4303 176.401 94.0718 174.449C94.3229 174.147 94.5148 173.8 94.6373 173.427L102.936 158.416C103.752 159.778 104.846 160.953 106.147 161.863C107.018 162.491 107.694 163.352 108.096 164.348C108.498 165.344 108.609 166.434 108.417 167.49C108.527 167.235 110.843 162.329 107.451 158.772Z" fill="#263238"/>
<path d="M146.174 155.124C145.302 154.173 144.646 153.045 144.249 151.818C143.853 150.59 143.725 149.292 143.875 148.011V148.011L133.333 167.08C132.791 165.369 131.757 163.856 130.36 162.73C127.387 160.222 123.638 159.775 121.997 161.727C120.355 163.679 121.431 167.299 124.413 169.798C127.396 172.297 131.135 172.762 132.776 170.801C133.028 170.5 133.219 170.153 133.342 169.78L141.65 154.769C142.46 156.132 143.551 157.308 144.851 158.216C145.723 158.844 146.399 159.705 146.803 160.701C147.206 161.696 147.32 162.785 147.131 163.843C147.25 163.588 149.566 158.672 146.174 155.124Z" fill="#263238"/>
<path d="M285.79 124.126C275.001 149.899 288.982 177.286 319.251 181.308C349.52 185.33 364.787 164.053 351.8 157.332C338.813 150.61 340.4 140.724 337.409 119.292C334.418 97.8606 296.561 98.3896 285.79 124.126ZM334.472 146.078C321.422 156.237 324.44 138.782 329.128 137.213C333.816 135.644 339.379 142.284 334.472 146.078Z" fill="#999999" stroke="#263238" stroke-linecap="round" stroke-linejoin="round"/>
<path d="M325.517 113.099C322.343 112.443 320.264 116.456 317.756 117.659C318.997 119.904 320.37 122.072 321.869 124.153C322.092 123.891 322.373 123.686 322.69 123.553C323.007 123.42 323.35 123.363 323.693 123.387C324.194 123.472 324.688 123.594 325.17 123.751C325.833 123.898 326.525 123.847 327.159 123.605C327.794 123.363 328.344 122.94 328.74 122.389C329.137 121.838 329.364 121.183 329.392 120.504C329.421 119.826 329.25 119.154 328.9 118.571C328.7 118.243 328.444 117.878 328.554 117.513C328.663 117.149 329.147 116.948 329.256 116.601C329.292 116.334 329.223 116.063 329.065 115.845C328.701 115.162 328.196 114.565 327.585 114.092C326.973 113.619 326.269 113.28 325.517 113.099Z" fill="#8F346C" stroke="#263238" stroke-linecap="round" stroke-linejoin="round"/>
<path d="M306.31 117.449C304.559 117.094 302.599 117.176 301.194 116.072C300.912 115.776 300.561 115.554 300.173 115.425C299.681 115.409 299.203 115.585 298.841 115.917C297.065 116.978 295.533 118.401 294.345 120.094C293.287 121.864 293.105 124.317 294.473 125.858C295.23 126.706 296.443 127.335 296.525 128.466C296.607 129.597 294.281 132.506 297.099 132.744C298.006 132.721 298.884 132.422 299.616 131.886C300.984 131.102 302.89 131.54 304.021 130.591C304.988 129.761 304.067 128.047 305.626 127.5C306.63 127.144 308.8 128.266 309.074 126.588C309.256 125.384 307.551 124.955 307.14 124.016C307.024 123.663 307.014 123.284 307.111 122.926C307.209 122.568 307.409 122.246 307.687 122C308.258 121.528 308.914 121.172 309.621 120.952C309.995 119.155 308.025 117.796 306.31 117.449Z" fill="#E41B1F" stroke="#263238" stroke-linecap="round" stroke-linejoin="round"/>
<path d="M305.471 143.442C305.079 143.132 303.009 143.871 302.115 142.904C298.595 139.11 289.63 152.252 295.466 154.35C295.868 154.445 296.251 154.608 296.597 154.833C297.81 155.845 296.296 158.18 297.427 159.284C298.558 160.387 300.099 158.983 301.531 159.046C302.069 159.161 302.615 159.231 303.164 159.256C303.897 159.071 304.533 158.615 304.942 157.979C306.401 156.238 308.088 154.021 307.824 151.595C307.632 149.771 306.337 147.829 305.763 146.124C305.289 144.719 306.638 144.637 305.471 143.442Z" fill="#F0A205" stroke="#263238" stroke-linecap="round" stroke-linejoin="round"/>
<path d="M322.215 163.269C321.581 162.534 321.019 161.74 320.537 160.898C319.944 160.141 318.804 159.585 318.02 160.159C317.655 160.424 317.427 160.898 316.989 161.016C316.634 161.052 316.276 160.995 315.95 160.852C315.455 160.717 314.931 160.73 314.443 160.888C313.955 161.046 313.524 161.344 313.202 161.744C312.881 162.144 312.683 162.629 312.633 163.139C312.583 163.65 312.684 164.164 312.922 164.619C314.035 166.771 315.019 172.982 317.017 172.58C318.558 172.261 319.871 174.249 321.285 173.885C323.629 173.292 325.27 166.023 323.647 164.336C323.237 163.907 322.662 163.661 322.215 163.269Z" fill="#007136" stroke="#263238" stroke-linecap="round" stroke-linejoin="round"/>
<path d="M341.568 164.745C340.649 164.326 339.693 163.993 338.713 163.751C337.834 163.449 336.891 163.38 335.977 163.551C335.516 163.654 335.112 163.932 334.852 164.327C334.592 164.721 334.495 165.202 334.582 165.666C334.709 166.068 335.019 166.396 335.156 166.788C335.685 168.293 332.895 170.974 335.366 171.841C337.464 172.57 341.358 172.178 343.027 170.573C345.881 167.764 343.993 165.876 341.568 164.745Z" fill="#244F8E" stroke="#263238" stroke-linecap="round" stroke-linejoin="round"/>
<path d="M353.223 131.03L356.323 127.018L360.5 129.671L357.436 134.131L353.223 131.03Z" fill="#BFBFBF" stroke="#263238" stroke-linecap="round" stroke-linejoin="round"/>
<path d="M352.913 129.881C335.813 155.152 325.644 173.146 320.993 181.755C320.892 181.935 320.862 182.147 320.91 182.348C320.958 182.549 321.08 182.724 321.251 182.839C321.423 182.954 321.631 183.001 321.835 182.969C322.039 182.937 322.224 182.829 322.352 182.667C327.824 176.192 338.996 162.12 358.248 134.222C359.279 132.809 353.889 128.486 352.913 129.881Z" fill="#263238"/>
<path d="M355.968 126.871C356.838 128.303 358.084 129.47 359.57 130.245C359.57 130.245 367.651 130.245 370.04 120.861C372.429 111.476 377.035 109.47 377.035 109.47C376.748 109.228 376.406 109.058 376.04 108.976C375.673 108.893 375.292 108.9 374.928 108.996L376.05 107.746C375.459 107.487 374.81 107.39 374.169 107.464C373.529 107.537 372.919 107.78 372.402 108.166L372.685 106.342C371.698 107.983 370.133 109.196 368.298 109.744C365.398 110.391 352.995 115.526 355.968 126.871Z" fill="white"/>
<path d="M370.04 120.861C369.813 121.761 369.508 122.64 369.128 123.487C369.301 121.207 370.213 118.015 369.128 117.623C367.441 117.003 367.049 120.414 366.784 119.274C366.52 118.134 367.988 116.054 367.806 114.714C367.623 113.373 365.571 115.763 364.304 116.091C363.036 116.419 366.447 112.516 365.991 111.531C365.763 111.234 365.442 111.022 365.079 110.929C366.093 110.423 367.157 110.023 368.253 109.734C370.086 109.189 371.651 107.98 372.639 106.342L372.357 108.166C372.873 107.78 373.483 107.537 374.124 107.464C374.765 107.39 375.414 107.487 376.005 107.746L374.883 109.005C375.244 108.903 375.624 108.892 375.99 108.974C376.356 109.055 376.696 109.225 376.98 109.47C376.98 109.47 372.43 111.476 370.04 120.861Z" fill="#244F8E"/>
<path d="M355.968 126.871C356.838 128.303 358.084 129.47 359.57 130.245C359.57 130.245 367.651 130.245 370.04 120.861C372.429 111.476 377.035 109.47 377.035 109.47C376.748 109.228 376.406 109.058 376.04 108.976C375.673 108.893 375.292 108.9 374.928 108.996L376.05 107.746C375.459 107.487 374.81 107.39 374.169 107.464C373.529 107.537 372.919 107.78 372.402 108.166L372.685 106.342C371.698 107.983 370.133 109.196 368.298 109.744C365.398 110.391 352.995 115.526 355.968 126.871Z" stroke="#263238" stroke-linecap="round" stroke-linejoin="round"/>
<path d="M188.472 141.043C188.472 141.043 182.845 142.347 187.396 148.485C187.396 148.485 182.252 149.333 185.845 155.607C185.845 155.607 182.735 158.243 186.602 162.903C186.602 162.903 184.778 167.463 193.834 173.674C193.834 173.674 193.77 177.55 200.045 179.037C205.517 180.332 207.003 178.042 207.003 178.042C207.003 178.042 214.208 177.13 218.166 171.212C218.166 171.212 224.55 169.269 222.681 165.384C222.681 165.384 227.824 161.371 225.088 158.772C225.088 158.772 230.998 152.817 228.016 150.838C222.781 147.381 188.472 141.043 188.472 141.043Z" fill="#263238" stroke="#263238" stroke-linecap="round" stroke-linejoin="round"/>
<path d="M231.262 71.0297C263.437 84.3995 263.848 115.526 252.804 131.057C242.772 145.202 229.201 144.135 228.016 150.902C226.83 157.669 188.982 147.81 187.222 142.968C185.462 138.125 193.314 138.782 178.777 119.374C164.24 99.9672 191.755 54.6138 231.262 71.0297Z" fill="white"/>
<path opacity="0.4" d="M228.025 150.865C226.839 157.632 188.982 147.765 187.222 142.931C185.462 138.098 193.314 138.736 178.777 119.338C164.24 99.9399 191.755 54.5865 231.262 71.0024C235.127 72.5791 238.799 74.5925 242.206 77.0033C226.046 73.4465 204.085 72.8263 191.974 95.0972C178.795 119.347 199.27 141.399 209.612 143.114C209.612 143.114 201.075 136.894 198.23 126.433C198.23 126.433 212.822 148.047 235.622 144.436C231.545 146.378 228.554 147.838 228.025 150.865Z" fill="#F0A205"/>
<path d="M231.262 71.0297C263.437 84.3995 263.848 115.526 252.804 131.057C242.772 145.202 229.201 144.135 228.016 150.902C226.83 157.669 188.982 147.81 187.222 142.968C185.462 138.125 193.314 138.782 178.777 119.374C164.24 99.9672 191.755 54.6138 231.262 71.0297Z" stroke="#263238" stroke-linecap="round" stroke-linejoin="round"/>
<path d="M222.598 159.492C222.598 159.492 207.45 164.59 188.435 156.984" stroke="white" stroke-linecap="round" stroke-linejoin="round"/>
<path d="M213.734 154.933C214.637 154.869 215.536 154.751 216.424 154.577" stroke="white" stroke-linecap="round" stroke-linejoin="round"/>
<path d="M189.603 149.953C195.7 152.557 202.158 154.221 208.754 154.887" stroke="white" stroke-linecap="round" stroke-linejoin="round"/>
<path d="M199.963 166.424C206.274 167.418 212.968 167.61 219.115 165.713" stroke="white" stroke-linecap="round" stroke-linejoin="round"/>
<path d="M189.146 163.779C191.635 164.65 194.179 165.35 196.762 165.877" stroke="white" stroke-linecap="round" stroke-linejoin="round"/>
<path d="M209.639 172.087C203.975 171.449 198.441 169.958 193.223 167.664" stroke="white" stroke-linecap="round" stroke-linejoin="round"/>
<path d="M215.002 172.261C214.181 172.306 213.351 172.261 212.521 172.261" stroke="white" stroke-linecap="round" stroke-linejoin="round"/>
<path d="M195.211 174.668C198.262 176.83 201.889 178.03 205.626 178.115" stroke="white" stroke-linecap="round" stroke-linejoin="round"/>
<path d="M226 149.524C226 149.524 209.821 139.128 190.897 140.131" stroke="#263238" stroke-linecap="round" stroke-linejoin="round"/>
<path d="M214.673 146.579C214.673 146.579 223.948 126.36 236.898 124.992C236.898 124.992 229.055 118.69 226 117.742C222.945 116.793 221.002 123.46 223.136 122.749C225.271 122.037 228.317 112.79 224.678 110.373C221.039 107.956 214.017 119.976 216.087 120.961C218.157 121.946 220.738 109.297 215.667 107.865C210.597 106.433 206.839 117.34 209.219 117.559C211.6 117.778 212.421 112.999 207.003 111.23C201.139 109.269 193.789 112.142 193.789 112.142C193.789 112.142 205.143 125.749 201.395 143.077" stroke="#263238" stroke-linecap="round" stroke-linejoin="round"/>
<path d="M248.818 391.595C253.478 385.822 256.26 369.251 256.26 369.251C260.213 372.185 263.679 375.725 266.529 379.739C271.719 378.965 276.823 377.692 281.768 375.936C286.858 374.192 291.699 371.791 296.169 368.795C286.255 354.203 269.475 329.343 259.142 321.527C255.147 318.508 242.772 315.562 242.772 315.562C239.972 313.027 233.862 315.562 233.862 315.562C200.802 323.971 170.569 313.082 170.569 313.082C170.569 313.082 166.283 311.103 162.772 313.082C159.353 312.704 155.903 312.704 152.485 313.082C144.915 314.121 136.643 322.767 133.232 326.698L104.186 360.341C104.186 360.341 103.21 373.583 105.262 375.334C121.677 389.406 145.882 357.432 145.882 357.432C146.037 357.496 146.411 385.275 159.37 399.803C159.37 399.803 168.554 403.998 204.267 400.715C239.707 397.459 248.818 391.595 248.818 391.595Z" fill="#572F88"/>
<path opacity="0.2" d="M124.943 350.401C119.471 350.885 116.598 349.571 115.503 347.237C123.42 338.117 132.658 327.373 133.233 326.708L134.145 325.668C138.248 334.852 141.659 348.942 124.943 350.401Z" fill="black"/>
<path opacity="0.2" d="M149.265 379.375C147.408 372.18 146.274 364.817 145.882 357.396C145.882 357.396 149.858 352.189 150.962 346.717C150.962 346.753 156.123 367.337 149.265 379.375Z" fill="black"/>
<path opacity="0.2" d="M263.511 375.936C261.355 373.44 258.922 371.197 256.26 369.251C256.26 369.251 256.652 356.182 260.3 352.224C263.237 349.041 266.365 365.603 263.511 375.936Z" fill="black"/>
<path d="M248.818 391.596C253.479 385.823 256.26 369.252 256.26 369.252C260.213 372.186 263.679 375.726 266.529 379.74" stroke="#263238" stroke-linecap="round" stroke-linejoin="round"/>
<path d="M296.169 368.795C286.255 354.203 269.475 329.343 259.142 321.527C255.147 318.508 242.772 315.562 242.772 315.562C239.972 313.027 233.862 315.562 233.862 315.562C200.802 323.971 170.569 313.082 170.569 313.082C170.569 313.082 166.283 311.103 162.772 313.082C159.353 312.704 155.903 312.704 152.485 313.082C144.915 314.121 136.643 322.767 133.232 326.698L104.186 360.341C104.186 360.341 103.21 373.583 105.262 375.334C121.677 389.406 145.882 357.432 145.882 357.432C146.037 357.496 146.411 385.275 159.37 399.803" stroke="#263238" stroke-linecap="round" stroke-linejoin="round"/>
<path d="M235.066 307.537L234.628 307.72C234.782 307.682 234.93 307.62 235.066 307.537Z" fill="#263238"/>
<path d="M244.906 282.931C248.371 283.442 249.22 280.898 249.22 280.898C249.22 280.898 244.906 282.931 241.085 275.106C238.914 270.647 239.99 262.457 241.313 256.237C243.985 251.832 247.861 245.74 248.371 238.517C249.283 226.114 243.456 219.831 236.734 221.673C236.734 221.673 236.242 211.194 226.785 207.437C217.327 203.679 215.841 206.762 206.721 204.482C197.601 202.202 188.682 204.19 185.417 210.091C182.152 215.991 181.039 226.707 175.467 230.857C169.895 235.006 160.145 244.993 163.228 256.164C166.31 267.336 164.559 271.158 160.492 276.438C156.424 281.718 158.905 292.115 166.666 295.38C166.666 295.38 163.374 293.62 165.699 290.674C165.699 290.674 167.523 297.678 173.606 296.401C179.689 295.125 187.414 294.696 191.354 299.01C195.293 303.323 209.694 304.482 212.94 301.199C216.187 297.915 218.704 300.961 224.587 303.935C230.469 306.908 236.999 304.299 236.999 304.299C236.999 304.299 236.452 306.844 235.047 307.601C236.242 307.099 239.552 305.521 240.519 303.15C241.486 300.779 242.033 298.49 240.875 292.954C244.951 291.358 243.073 288.659 243.073 288.659C246.921 290.82 248.745 284.436 248.745 284.436C245.161 284.381 244.906 282.931 244.906 282.931Z" fill="#263238"/>
<path d="M237.172 316.702C237.172 316.702 211.427 328.156 203.155 328.621C194.883 329.086 166.748 314.121 166.748 314.121L188.198 308.266C191.116 302.703 191.189 296.154 190.487 288.485C190.268 286.104 189.986 283.861 189.676 281.845C188.946 276.984 188.134 273.592 188.134 273.592L218.449 274.85C217.817 276.777 217.297 278.738 216.889 280.724C216.051 284.842 215.572 289.026 215.458 293.227C215.111 303.715 216.734 309.643 216.734 309.643L237.172 316.702Z" fill="white" stroke="#263238" stroke-linecap="round" stroke-linejoin="round"/>
<path d="M174.5 318.061C174.5 318.061 190.733 320.906 194.764 320.441C198.795 319.976 201.96 323.943 201.96 323.943" fill="white"/>
<path d="M174.5 318.061C174.5 318.061 190.733 320.906 194.764 320.441C198.795 319.976 201.96 323.943 201.96 323.943" stroke="#263238" stroke-linecap="round" stroke-linejoin="round"/>
<path d="M231.545 319.092C231.545 319.092 215.001 320.916 210.998 321.007C206.994 321.098 205.809 323.944 205.809 323.944" fill="white"/>
<path d="M231.545 319.092C231.545 319.092 215.001 320.916 210.998 321.007C206.994 321.098 205.809 323.944 205.809 323.944" stroke="#263238" stroke-linecap="round" stroke-linejoin="round"/>
<path d="M216.89 280.725C216.051 284.843 215.572 289.027 215.458 293.228C212.969 295.42 210.088 297.122 206.967 298.244C201.869 299.931 195.111 293.684 190.487 288.486C190.269 286.105 189.986 283.862 189.676 281.846L216.89 280.725Z" fill="#263238"/>
<path d="M181.094 248.075C181.094 248.075 178.595 244.235 176.37 245.011C174.145 245.786 174.145 256.164 174.318 258.9C174.491 261.636 179.936 267.646 182.216 265.996" fill="white"/>
<path d="M181.094 248.075C181.094 248.075 178.595 244.235 176.37 245.011C174.145 245.786 174.145 256.164 174.318 258.9C174.491 261.636 179.936 267.646 182.216 265.996" stroke="#263238" stroke-linecap="round" stroke-linejoin="round"/>
<path d="M235.978 256.164C235.978 256.164 239.471 253.209 241.386 254.596C243.301 255.982 240.291 265.941 239.343 268.485C238.394 271.03 231.436 275.243 229.73 273" fill="white"/>
<path d="M235.978 256.164C235.978 256.164 239.471 253.209 241.386 254.596C243.301 255.982 240.291 265.941 239.343 268.485C238.394 271.03 231.436 275.243 229.73 273" stroke="#263238" stroke-linecap="round" stroke-linejoin="round"/>
<path d="M202.07 295.991C192.886 294.632 183.766 279.055 182.662 274.668C181.44 269.789 178.75 245.722 183.994 232.534C189.895 217.714 202.234 211.458 214.263 213.227C226.292 214.997 236.306 224.545 237.683 240.441C238.905 254.577 229.384 276.848 226.803 281.171C224.486 285.056 211.764 297.413 202.07 295.991Z" fill="white" stroke="#263238" stroke-linecap="round" stroke-linejoin="round"/>
<path d="M222.89 257.378C222.644 259.083 221.678 260.351 220.738 260.205C219.799 260.059 219.252 258.582 219.498 256.876C219.744 255.171 220.711 253.912 221.65 254.049C222.59 254.186 223.146 255.673 222.89 257.378Z" fill="#263238"/>
<path d="M192.904 252.964C192.658 254.66 193.214 256.156 194.153 256.292C195.093 256.429 196.05 255.161 196.297 253.456C196.543 251.751 195.996 250.264 195.056 250.127C194.117 249.99 193.159 251.258 192.904 252.964Z" fill="#263238"/>
<path d="M213.442 275.991C213.442 275.991 208.682 285.33 202.608 283.798C196.534 282.266 196.58 273.766 196.58 273.52L197.437 273.848C199.837 274.747 202.325 275.389 204.86 275.763C207.315 276.085 209.794 276.183 212.266 276.055C213.005 276.028 213.442 275.991 213.442 275.991Z" fill="#757575"/>
<path d="M205.517 256.557C205.754 262.421 200.72 263.415 201.686 265.449C202.373 266.728 203.531 267.69 204.915 268.13" fill="white"/>
<path d="M205.517 256.557C205.754 262.421 200.72 263.415 201.686 265.449C202.373 266.728 203.531 267.69 204.915 268.13" stroke="#263238" stroke-linecap="round" stroke-linejoin="round"/>
<path d="M196.58 273.492C196.58 273.492 196.525 282.256 202.608 283.789C208.691 285.321 213.442 275.973 213.442 275.973" stroke="#263238" stroke-linecap="round" stroke-linejoin="round"/>
<path d="M187.478 245.221C187.478 245.221 192.95 238.308 201.441 240.497" stroke="#263238" stroke-linecap="round" stroke-linejoin="round"/>
<path d="M229.512 251.422C229.512 251.422 226.256 243.214 217.51 242.877" stroke="#263238" stroke-linecap="round" stroke-linejoin="round"/>
<path d="M255.166 245.904L253.469 247.783L252.156 249.233L236.953 258.061L237.573 253.802L250.022 246.57L252.712 246.223L255.166 245.904Z" fill="#572F88" stroke="#263238" stroke-linecap="round" stroke-linejoin="round"/>
<path d="M251.481 249.607C249.229 249.178 249.986 246.561 249.986 246.561L255.129 245.904L251.481 249.607Z" fill="white" stroke="#263238" stroke-linecap="round" stroke-linejoin="round"/>
<path d="M255.129 245.904L253.433 247.774C253.274 247.733 253.125 247.659 252.998 247.555C252.871 247.452 252.767 247.322 252.695 247.174C252.623 247.026 252.584 246.865 252.581 246.701C252.577 246.537 252.61 246.374 252.676 246.223L255.129 245.904Z" fill="#263238"/>
<path d="M223.273 225.914C223.273 225.914 217.501 233.483 204.97 235.672C189.274 238.408 180.61 251.979 180.829 257.642C177.744 249.699 176.816 241.081 178.139 232.663C181.258 211.833 200.692 205.877 214.819 207.328C228.946 208.778 235.795 222.941 235.795 222.941C235.795 222.941 246.401 231.203 244.915 241.618C243.438 251.586 241.021 251.869 239.735 254.122C237.966 257.241 240.291 258.545 234.09 263.679C234.09 263.679 236.543 249.762 233.497 239.384C230.451 229.006 223.273 225.914 223.273 225.914Z" fill="#263238"/>
<path d="M227.159 222.421C227.159 222.421 221.623 243.561 190.159 246.862C190.159 246.862 211.354 243.032 221.167 223.67L227.159 222.421Z" fill="#263238"/>
<path d="M203.283 279.21C203.283 279.21 207.606 277.669 209.275 279.21C209.275 279.21 206.429 283.77 202.772 282.657C199.115 281.545 198.34 277.186 198.34 277.186C198.34 277.186 200.319 276.228 203.283 279.21Z" fill="#BFBFBF"/>
<path d="M212.868 276.064L211.637 277.46C206.784 278.078 201.855 277.29 197.437 275.189L197.008 273.675C199.548 274.637 202.179 275.337 204.861 275.763C207.517 276.085 210.195 276.185 212.868 276.064V276.064Z" fill="white"/>
<path d="M195.221 272.945C195.221 272.945 205.107 277.551 214.664 275.809" stroke="#263238" stroke-linecap="round" stroke-linejoin="round"/>
<path d="M226.32 217.168C226.32 217.168 219.617 225.95 203.283 227.291C186.949 228.632 182.216 235.399 182.216 235.399" stroke="#757575" stroke-linecap="round" stroke-linejoin="round"/>
<path d="M189.539 217.861C188.025 218.153 185.891 218.691 185.216 220.233" stroke="#757575" stroke-linecap="round" stroke-linejoin="round"/>
<path d="M228.335 210.346C218.486 217.705 205.763 218.554 192.84 217.514" stroke="#757575" stroke-linecap="round" stroke-linejoin="round"/>
<path d="M165.936 277.669C164.997 278.642 164.26 279.793 163.769 281.053C163.277 282.313 163.041 283.658 163.073 285.01" stroke="#757575" stroke-linecap="round" stroke-linejoin="round"/>
<path d="M177.711 236.621C173.151 239.22 169.457 243.999 169.211 249.389C168.8 258.509 175.321 266.717 168.554 274.66" stroke="#757575" stroke-linecap="round" stroke-linejoin="round"/>
<path d="M175.786 266.278C175.786 266.278 180.839 271.623 177.555 277.058C174.272 282.494 172.576 288.002 179.306 292.015" stroke="#757575" stroke-linecap="round" stroke-linejoin="round"/>
<path d="M212.676 238.234C211.601 238.908 210.486 239.517 209.338 240.058" stroke="#757575" stroke-linecap="round" stroke-linejoin="round"/>
<path d="M224.477 224.773C222.517 229.287 219.437 233.226 215.531 236.219" stroke="#757575" stroke-linecap="round" stroke-linejoin="round"/>
<path d="M228.335 225.531C228.335 225.531 235.166 229.243 237.792 235.399C240.419 241.555 236.716 250.219 238.431 253.21" stroke="#757575" stroke-linecap="round" stroke-linejoin="round"/>
<path d="M238.959 285.576C239.9 286.168 240.933 286.6 242.015 286.853" stroke="#757575" stroke-linecap="round" stroke-linejoin="round"/>
<path d="M233.552 277.059C233.969 279.283 234.906 281.377 236.288 283.169" stroke="#757575" stroke-linecap="round" stroke-linejoin="round"/>
<path d="M230.852 281.955C230.852 281.955 230.214 288.904 234.646 293.501C239.078 298.097 237.783 300.961 237.783 300.961" stroke="#757575" stroke-linecap="round" stroke-linejoin="round"/>
<path d="M223.51 289.908C223.51 289.908 226.155 296.949 221.96 299.293" stroke="#757575" stroke-linecap="round" stroke-linejoin="round"/>
<path d="M233.552 223.598C233.552 223.598 243.529 225.613 244.988 229.982C246.447 234.35 244.988 239.375 244.988 239.375" stroke="#757575" stroke-linecap="round" stroke-linejoin="round"/>
<path d="M105.262 375.334C96.7985 370.637 98.4401 353.747 104.04 332.653C106.776 322.293 116.279 296.173 116.087 295.261C115.575 293.505 114.872 291.811 113.99 290.209C113.99 290.209 116.726 287.418 117.875 286.916C122.808 284.81 132.549 282.156 137.026 284.007C138.422 284.582 140.446 287.838 140.164 289.169C139.881 290.501 135.886 294.878 136.269 299.073C136.653 303.268 133.014 317.113 133.114 322.63C133.114 323.761 133.178 325.184 133.242 326.734C133.242 327.719 133.242 344.974 126.602 353.784" fill="#572F88"/>
<path d="M105.262 375.334C96.7985 370.637 98.4401 353.747 104.04 332.653C106.776 322.293 116.279 296.173 116.087 295.261C115.575 293.505 114.872 291.811 113.99 290.209C113.99 290.209 116.726 287.418 117.875 286.916C122.808 284.81 132.549 282.156 137.026 284.007C138.422 284.582 140.446 287.838 140.164 289.169C139.881 290.501 135.886 294.878 136.269 299.073C136.653 303.268 133.014 317.113 133.114 322.63C133.114 323.761 133.178 325.184 133.242 326.734C133.242 327.719 133.242 344.974 126.602 353.784" stroke="#263238" stroke-linecap="round" stroke-linejoin="round"/>
<path d="M132.777 244.309C132.959 245.987 136.58 257.989 137.702 270.182C139.99 269.351 142.142 268.183 144.085 266.717C146.356 264.728 151.108 266.315 150.916 267.629C150.725 268.942 146.356 268.723 142.663 273.684C138.969 278.645 138.212 284.145 133.306 286.79C128.399 289.434 120.775 290.374 117.802 286.844C114.829 283.315 111.527 264.592 112.686 262.64C113.674 261.216 114.909 259.98 116.334 258.992C116.334 258.992 117.583 255.344 119.48 255.061C121.377 254.779 125.864 254.687 125.864 254.687C126.912 253.91 128.213 253.552 129.512 253.684C129.512 253.684 128.034 239.64 126.776 234.925C125.517 230.21 131.29 230.237 132.777 244.309Z" fill="white" stroke="#263238" stroke-linecap="round" stroke-linejoin="round"/>
<path d="M129.576 253.684C133.452 255.435 135.166 262.803 135.166 263.332C134.391 265.952 133.46 268.522 132.376 271.03C131.409 273.127 129.32 271.03 129.32 271.03C129.32 271.03 128.682 273.766 127.214 272.571C125.344 271.03 125.344 266.041 125.344 266.041C125.344 266.041 125.116 270.191 124.031 272.215C122.946 274.24 120.757 272.89 121.076 266.898C121.076 266.898 116.607 265.804 116.452 264.71" stroke="#263238" stroke-linecap="round" stroke-linejoin="round"/>
<path d="M125.344 266.041C124.25 263.232 120.045 260.651 120.045 260.651" stroke="#263238" stroke-linecap="round" stroke-linejoin="round"/>
<path d="M129.32 271.029C129.32 271.029 131.518 264.646 130.925 263.332C130.332 262.019 126.593 258.398 126.593 258.398" stroke="#263238" stroke-linecap="round" stroke-linejoin="round"/>
<path d="M137.701 270.209C137.701 270.209 133.579 271.121 131.746 276.374" stroke="#263238" stroke-linecap="round" stroke-linejoin="round"/>
<path d="M116.087 295.225C116.087 295.225 122.744 300.697 129.904 296.137" stroke="#263238" stroke-linecap="round" stroke-linejoin="round"/>
<path d="M121.687 311.468C120.405 312.217 119.032 312.796 117.601 313.191" stroke="#263238" stroke-linecap="round" stroke-linejoin="round"/>
<path d="M137.701 293.502C134.485 299.511 130.152 304.85 124.934 309.234" stroke="#263238" stroke-linecap="round" stroke-linejoin="round"/>
<path d="M162.772 313.082C162.772 313.082 175.768 325.284 183.374 328.586" stroke="#263238" stroke-linecap="round" stroke-linejoin="round"/>
<path d="M149.812 326.287C150.399 327.909 150.785 329.597 150.962 331.312" stroke="#263238" stroke-linecap="round" stroke-linejoin="round"/>
<path d="M145.298 315.945C146.466 318.143 147.524 320.414 148.481 322.721" stroke="#263238" stroke-linecap="round" stroke-linejoin="round"/>
<path d="M198.34 332.654C198.34 332.654 219.607 332.946 233.26 323.625" stroke="#263238" stroke-linecap="round" stroke-linejoin="round"/>
<path d="M242.772 315.562C240.944 316.805 239.272 318.262 237.792 319.904" stroke="#263238" stroke-linecap="round" stroke-linejoin="round"/>
<path d="M253.451 331.148C251.266 333.415 248.777 335.367 246.055 336.949" stroke="#263238" stroke-linecap="round" stroke-linejoin="round"/>
<path d="M258.084 325.476C257.392 326.519 256.643 327.524 255.841 328.485" stroke="#263238" stroke-linecap="round" stroke-linejoin="round"/>
<path d="M145.882 357.396C145.882 357.396 151.071 350.674 150.962 342.612" stroke="#263238" stroke-linecap="round" stroke-linejoin="round"/>
<path d="M256.26 369.251C256.26 369.251 255.148 355.726 264.632 345.84" stroke="#263238" stroke-linecap="round" stroke-linejoin="round"/>
<path d="M266.529 353.291C266.985 353.747 258.431 361.207 256.397 364.545" stroke="#263238" stroke-linecap="round" stroke-linejoin="round"/>
<path d="M173.05 386.734C173.05 386.734 204.177 399.101 220.301 398.846" stroke="#263238" stroke-linecap="round" stroke-linejoin="round"/>
<path d="M206.857 356.867H203.164C202.565 356.867 202.079 357.353 202.079 357.952V363.589C202.079 364.188 202.565 364.674 203.164 364.674H206.857C207.457 364.674 207.943 364.188 207.943 363.589V357.952C207.943 357.353 207.457 356.867 206.857 356.867Z" fill="#BFBFBF"/>
<path d="M206.858 365.257H203.21C202.769 365.255 202.346 365.078 202.035 364.765C201.724 364.452 201.55 364.029 201.55 363.588V357.952C201.55 357.511 201.724 357.088 202.035 356.775C202.346 356.463 202.769 356.286 203.21 356.283H206.858C207.076 356.283 207.293 356.326 207.495 356.41C207.697 356.494 207.88 356.617 208.034 356.773C208.189 356.928 208.311 357.112 208.394 357.314C208.477 357.517 208.519 357.733 208.517 357.952V363.588C208.519 363.807 208.477 364.024 208.394 364.226C208.311 364.429 208.189 364.613 208.034 364.768C207.88 364.923 207.697 365.046 207.495 365.13C207.293 365.214 207.076 365.257 206.858 365.257V365.257ZM203.21 357.441C203.076 357.444 202.948 357.499 202.854 357.594C202.761 357.69 202.708 357.818 202.708 357.952V363.588C202.708 363.721 202.761 363.849 202.855 363.943C202.949 364.037 203.077 364.09 203.21 364.09H206.858C206.924 364.091 206.99 364.079 207.051 364.054C207.112 364.029 207.168 363.993 207.215 363.946C207.262 363.899 207.299 363.843 207.324 363.782C207.348 363.72 207.36 363.654 207.359 363.588V357.952C207.36 357.886 207.348 357.819 207.324 357.757C207.299 357.695 207.262 357.639 207.216 357.592C207.169 357.544 207.113 357.506 207.052 357.48C206.99 357.455 206.924 357.441 206.858 357.441H203.21Z" fill="#263238"/>
<path d="M216.735 309.68C216.735 309.68 233.26 313.082 205.016 356C205.016 356 172.111 314.322 188.198 308.267" stroke="#263238" stroke-linecap="round" stroke-linejoin="round"/>
<path d="M205.599 355.572C205.599 356.201 205.316 356.712 204.97 356.712C204.623 356.712 204.34 356.201 204.34 355.572C204.34 354.942 204.623 354.432 204.97 354.432C205.316 354.432 205.599 354.942 205.599 355.572Z" fill="#263238"/>
</svg>
