<svg width="66" height="72" viewBox="0 0 66 72" fill="none" xmlns="http://www.w3.org/2000/svg">
<path d="M58.81 36.3195C62.0188 36.3195 64.62 33.678 64.62 30.4195C64.62 27.1611 62.0188 24.5195 58.81 24.5195C55.6012 24.5195 53 27.1611 53 30.4195C53 33.678 55.6012 36.3195 58.81 36.3195Z" stroke="#572F88" stroke-miterlimit="10" stroke-linecap="round"/>
<path d="M7.20062 36.3195C10.4094 36.3195 13.0106 33.678 13.0106 30.4195C13.0106 27.1611 10.4094 24.5195 7.20062 24.5195C3.99185 24.5195 1.39062 27.1611 1.39062 30.4195C1.39062 33.678 3.99185 36.3195 7.20062 36.3195Z" stroke="#572F88" stroke-miterlimit="10" stroke-linecap="round"/>
<path d="M64.5504 71V44.5301C64.5504 44.5301 64.3805 39.13 59.1405 39.13C58.3316 39.1125 57.5308 39.2972 56.8114 39.6674C56.0919 40.0376 55.4764 40.5816 55.0204 41.25L48.3705 49.0601H41.3705C41.0794 49.0652 40.7921 49.1283 40.5257 49.2456C40.2593 49.363 40.0191 49.5323 39.819 49.7437C39.6188 49.9551 39.4627 50.2042 39.36 50.4766C39.2572 50.749 39.2096 51.0391 39.2203 51.33C39.1872 51.6136 39.212 51.9009 39.2931 52.1746C39.3742 52.4483 39.5099 52.7028 39.6922 52.9225C39.8745 53.1422 40.0996 53.3226 40.3536 53.4528C40.6077 53.583 40.8857 53.6604 41.1705 53.6801" stroke="#572F88" stroke-miterlimit="10" stroke-linecap="round"/>
<path d="M1.37988 71V44.53C1.37988 44.53 1.5598 39.1299 6.7998 39.1299C7.60859 39.1133 8.40886 39.2984 9.12817 39.6685C9.84749 40.0386 10.4633 40.5822 10.9199 41.2499L17.5598 49.06H24.5598C24.5598 49.06 26.7097 48.91 26.7097 51.53C26.7097 53.48 25.3998 53.65 24.7698 53.68" stroke="#572F88" stroke-miterlimit="10" stroke-linecap="round"/>
<path d="M6.5498 45.5303L14.5498 52.8502C15.161 53.3641 15.9224 53.6659 16.7197 53.7102H49.2798C50.0804 53.6673 50.8454 53.3655 51.4597 52.8502L59.4597 45.5303" stroke="#572F88" stroke-miterlimit="10" stroke-linecap="round"/>
<path d="M54 71V51" stroke="#572F88" stroke-miterlimit="10" stroke-linecap="round"/>
<path d="M48 71V54" stroke="#572F88" stroke-miterlimit="10" stroke-linecap="round"/>
<path d="M17 71V54" stroke="#572F88" stroke-miterlimit="10" stroke-linecap="round"/>
<path d="M12 71V51" stroke="#572F88" stroke-miterlimit="10" stroke-linecap="round"/>
<path d="M18.8999 22.5704C18.8999 22.5704 15.1699 19.9005 15.1699 16.6805C15.1699 13.4605 18.1697 9.98047 24.9897 9.98047C31.8097 9.98047 34.9897 14.0505 34.9897 16.2805C34.9897 19.3905 33.5899 21.6005 26.3999 23.7605L18.1099 26.1705L18.8999 22.5704Z" stroke="#572F88" stroke-miterlimit="10" stroke-linecap="round"/>
<path d="M20 15H29.48" stroke="#572F88" stroke-miterlimit="10" stroke-linecap="round"/>
<path d="M29.5 18.5H23" stroke="#572F88" stroke-miterlimit="10" stroke-linecap="round"/>
<path d="M52.3706 13.59C52.3706 13.59 56.0906 10.9101 56.0906 7.69006C56.0906 4.47006 53.0905 1 46.2705 1C39.4505 1 36.2705 5.22004 36.2705 7.29004C36.2705 8.68004 35.3906 12.94 44.6506 16.46L52.4206 19.24L52.3706 13.59Z" stroke="#572F88" stroke-miterlimit="10" stroke-linecap="round"/>
<path d="M51.18 6.03027H41.71" stroke="#572F88" stroke-miterlimit="10" stroke-linecap="round"/>
<path d="M47.68 9.53027H41.71" stroke="#572F88" stroke-miterlimit="10" stroke-linecap="round"/>
</svg>
