<svg width="56" height="56" viewBox="0 0 56 56" fill="none" xmlns="http://www.w3.org/2000/svg">
<circle cx="28" cy="28" r="27.5" fill="white" stroke="#EDEBEE"/>
<g clip-path="url(#clip0_632_5605)">
<path d="M27.682 24.4952L27.726 25.2646L26.9347 25.1766C24.0331 24.8029 21.5052 23.55 19.373 21.4618L18.3179 20.4066L18.0541 21.176C17.4826 22.8906 17.8343 24.715 19.0433 25.924C19.6588 26.6054 19.5269 26.6934 18.4278 26.2977C18.0541 26.1658 17.7244 26.0779 17.6805 26.1218C17.5705 26.2317 17.9442 27.7045 18.252 28.276C18.6696 29.0674 19.5049 29.8587 20.4281 30.3203L21.2195 30.694L20.2963 30.716C19.395 30.716 19.373 30.716 19.461 31.0677C19.7687 32.1008 21.0436 33.1999 22.4285 33.6835L23.4176 34.0352L22.5603 34.5408C21.2854 35.2881 19.7907 35.7058 18.2959 35.7278C17.5925 35.7497 16.999 35.8157 16.999 35.8597C16.999 36.0135 18.9334 36.9148 20.0764 37.2665C23.4396 38.3216 27.4622 37.86 30.4957 36.0795C32.6279 34.8045 34.7821 32.2986 35.7712 29.8587C36.3208 28.5618 36.8483 26.1878 36.8483 25.0447C36.8483 24.3194 36.8923 24.2094 37.7935 23.3302C38.3211 22.8246 38.8047 22.2531 38.8926 22.0992C39.0685 21.7915 39.0465 21.7915 38.2332 22.0553C36.8923 22.5389 36.6945 22.4729 37.3539 21.7695C37.8595 21.2419 38.453 20.3187 38.453 20.0549C38.453 19.989 38.2112 20.0769 37.9254 20.2308C37.6397 20.3847 37.0022 20.6265 36.5406 20.7584L35.6833 21.0441L34.892 20.5166C34.4743 20.2308 33.8588 19.9011 33.5511 19.8131C32.7378 19.5713 31.5068 19.6153 30.7814 19.8791C28.7811 20.5825 27.5282 22.4509 27.682 24.4952Z" fill="#0C0B0D"/>
</g>
<defs>
<clipPath id="clip0_632_5605">
<rect width="21.9815" height="21.9815" fill="white" transform="translate(16.999 17)"/>
</clipPath>
</defs>
</svg>
