<svg width="56" height="56" viewBox="0 0 56 56" fill="none" xmlns="http://www.w3.org/2000/svg">
<circle cx="28" cy="28" r="27.5" fill="white" stroke="#EDEBEE"/>
<path d="M28 17C21.9341 17 17 21.9341 17 28C17 34.0659 21.9341 39 28 39C34.0659 39 39 34.0659 39 28C39 21.9341 34.0659 17 28 17ZM35.2743 22.0716C36.5832 23.6714 37.3764 25.7075 37.395 27.926C37.0856 27.8599 33.9786 27.2305 30.8531 27.6245C30.787 27.4632 30.7209 27.3019 30.6522 27.1406C30.4565 26.6832 30.2476 26.2257 30.0281 25.7788C33.5 24.3589 35.076 22.3413 35.2743 22.0716ZM28 18.6183C30.3877 18.6183 32.5692 19.5147 34.2272 20.9849C34.0579 21.2255 32.6433 23.1267 29.3036 24.38C27.7647 21.5507 26.0591 19.2291 25.7974 18.88C26.5192 18.7055 27.257 18.6183 28 18.6183ZM24.0046 19.512C24.2531 19.8505 25.9322 22.18 27.487 24.9459C23.0923 26.112 19.2212 26.0962 18.8007 26.0909C19.4115 23.1743 21.3762 20.7522 24.0046 19.512ZM18.605 28.0132C18.605 27.918 18.6077 27.8202 18.6103 27.725C19.0202 27.7329 23.5736 27.7911 28.2671 26.387C28.5368 26.9132 28.7933 27.4474 29.0286 27.9815C28.9043 28.0159 28.78 28.0529 28.6584 28.0925C23.8115 29.6632 21.2334 33.9337 21.0192 34.2959C19.52 32.63 18.605 30.4274 18.605 28.0132ZM28 37.4082C25.8264 37.4082 23.8248 36.6678 22.2329 35.425C22.4022 35.0786 24.3034 31.4058 29.6024 29.5575L29.6632 29.5363C30.9827 32.9632 31.5274 35.8375 31.6675 36.6625C30.5085 37.1579 29.2605 37.4116 28 37.4082ZM33.2488 35.8031C33.1536 35.232 32.6538 32.482 31.4243 29.1053C34.37 28.6346 36.956 29.4067 37.276 29.5072C36.8582 32.1197 35.3589 34.3779 33.2488 35.8031Z" fill="#0C0B0D"/>
</svg>
